<?xml version="1.0" encoding="utf-8"?>
<!-- Generator: Adobe Illustrator 16.0.0, SVG Export Plug-In . SVG Version: 6.00 Build 0)  -->
<!DOCTYPE svg PUBLIC "-//W3C//DTD SVG 1.1//EN" "http://www.w3.org/Graphics/SVG/1.1/DTD/svg11.dtd">
<svg version="1.1"  id="logo-uces" xmlns="http://www.w3.org/2000/svg" xmlns:xlink="http://www.w3.org/1999/xlink" x="0px" y="0px"
	 width="318.629px" height="178px" viewBox="0 0 318.629 178" enable-background="new 0 0 318.629 178" xml:space="preserve">
<path fill="#FFFFFF" d="M189.443,171.709c36.271-3.23,55.813-14.941,92.211-16.418c12.592-0.516,33.689,0,33.689,0v-4.797
	c0,0-25.041-0.43-40.164,0c-25.271,0.732-39.388,3.643-64.635,5.012c-20.168,1.102-31.561,1.87-51.746,1.854
	c-20.159-0.006-31.524-0.811-51.652-1.92c-25.242-1.369-39.364-4.237-64.638-4.944c-15.12-0.421-38.778,0.03-38.778,0.03v4.771
	c0,0,19.729-0.506,32.321,0c36.375,1.484,55.93,13.169,92.198,16.413c11.897,1.062,18.61,2.031,30.549,2.036
	C170.777,173.749,177.514,172.773,189.443,171.709L189.443,171.709z"/>
<path fill="#FFFFFF" d="M189.443,7.978c36.271,3.235,55.813,14.941,92.211,16.422c12.592,0.511,33.689,0,33.689,0v4.793
	c0,0-25.041,0.434-40.164,0c-25.271-0.729-39.388-3.638-64.635-5.012c-20.168-1.101-31.561-1.875-51.746-1.857
	c-20.159,0.014-31.524,0.819-51.652,1.925c-25.242,1.373-39.364,4.237-64.638,4.944c-15.12,0.416-38.778-0.031-38.778-0.031v-4.771
	c0,0,19.729,0.506,32.321,0c36.375-1.485,55.93-13.174,92.198-16.413c11.897-1.065,18.61-2.031,30.549-2.031
	C170.777,5.946,177.514,6.912,189.443,7.978L189.443,7.978z"/>
<path fill="#FFFFFF" d="M96.408,56.019c-1.061,0.107-5.334,0.349-7.32,0.733c-1.987,0.39-3.656,1.057-4.999,2.001
	c-1.378,0.903-2.362,2.55-2.926,4.922c-0.564,2.354-0.842,5.911-0.842,10.641v28.845c0,8.493-2.877,15.317-8.632,20.489
	c-5.75,5.16-13.37,7.746-22.834,7.746c-11.04,0-19.568-2.487-25.623-7.481c-6.045-4.989-9.065-11.938-9.065-20.86V63.397
	c0-1.284-0.246-2.376-0.743-3.28c-0.483-0.917-1.419-1.728-2.811-2.456c-0.943-0.471-2.107-0.855-3.499-1.15
	c-1.383-0.295-2.515-0.492-3.383-0.604V51.76h40.645v4.146c-1.164,0.081-2.354,0.211-3.554,0.417
	c-1.199,0.196-2.425,0.501-3.66,0.899c-1.387,0.438-2.313,1.167-2.787,2.184c-0.471,1.021-0.712,2.165-0.712,3.44v39.118
	c0,7.676,1.696,13.271,5.079,16.768c3.378,3.5,8.296,5.244,14.727,5.244c6.331,0,11.299-1.938,14.892-5.789
	c3.606-3.857,5.401-9.551,5.401-17.045V74.871c0-4.663-0.318-8.153-0.949-10.467c-0.64-2.31-1.615-3.979-2.926-4.998
	c-0.949-0.802-2.596-1.535-4.945-2.184c-2.354-0.658-5.379-1.057-6.322-1.204v-4.26h37.789L96.408,56.019L96.408,56.019z"/>
<path fill="#FFFFFF" d="M129.655,131.396c-5.674,0-10.994-0.912-15.947-2.748c-4.958-1.849-9.272-4.523-12.946-8.019
	c-3.61-3.428-6.443-7.67-8.523-12.722c-2.072-5.049-3.115-10.592-3.115-16.66c0-6.014,1.047-11.58,3.146-16.704
	c2.089-5.119,5.038-9.571,8.819-13.321c3.719-3.688,8.175-6.533,13.384-8.561c5.218-2.022,10.784-3.033,16.718-3.033
	c4.296,0,8.211,0.523,11.737,1.579c3.535,1.065,6.524,2.242,8.968,3.558l3.387-3.007h4.748l0.501,28.294h-4.811
	c-2.729-8.646-6.009-15.004-9.821-19.05c-3.826-4.049-8.479-6.081-13.971-6.081c-6.837,0-12.041,3.021-15.604,9.062
	c-3.566,6.041-5.347,14.508-5.347,25.412c0,6.167,0.608,11.424,1.83,15.788c1.212,4.35,2.806,7.865,4.77,10.532
	c2.112,2.771,4.601,4.802,7.482,6.095c2.863,1.299,6.054,1.947,9.54,1.947c5.097,0,9.634-1.388,13.616-4.148
	c3.987-2.773,7.607-6.967,10.888-12.564l4.703,2.833c-1.57,3.204-3.355,6.076-5.361,8.608c-2,2.533-4.31,4.707-6.932,6.529
	c-2.882,2-6.054,3.563-9.535,4.697C138.502,130.846,134.39,131.396,129.655,131.396z"/>
<path fill="#FFFFFF" d="M239.914,71.537h-4.152c-1.052-2.944-2.869-5.916-5.464-8.928c-2.582-3.007-5.149-4.787-7.7-5.333
	c-1.089-0.256-2.613-0.412-4.557-0.471c-1.951-0.054-4.896-0.076-6.166-0.076h-12.633v29.883h7.982c1.996,0,3.817-0.241,5.455-0.711
	c1.646-0.483,3.133-1.388,4.483-2.73c0.837-0.841,1.683-2.317,2.532-4.421c0.854-2.116,1.414-3.955,1.67-5.526h4.152v32.34h-4.152
	c-0.221-1.526-0.779-3.451-1.67-5.76c-0.891-2.318-1.74-3.906-2.532-4.775c-1.204-1.323-2.631-2.215-4.265-2.707
	c-1.639-0.5-3.539-0.746-5.674-0.746h-7.983v22.347c0,2.336,0.18,4.181,0.521,5.544c0.336,1.365,0.992,2.412,1.938,3.143
	c0.912,0.685,2.156,1.149,3.744,1.369c1.584,0.209,3.742,0.326,6.472,0.326c1.274,0,2.812-0.019,4.591-0.063
	c1.781-0.035,3.352-0.135,4.699-0.326c1.525-0.175,2.957-0.452,4.281-0.811c1.334-0.367,2.318-0.903,2.977-1.588
	c1.75-1.781,3.719-4.512,5.902-8.168c2.184-3.654,3.623-6.397,4.318-8.22h3.985l-1.468,24.146h-75.467v-4.26
	c1.017-0.076,5.154-0.229,6.904-0.438c1.75-0.215,2.984-0.471,3.719-0.762c1.383-0.586,2.313-1.319,2.783-2.209
	c0.465-0.904,0.711-2.032,0.711-3.42V63.509c0-1.315-0.205-2.398-0.604-3.262c-0.402-0.846-1.364-1.624-2.891-2.317
	c-0.953-0.439-2.277-0.842-3.982-1.2c-1.723-0.366-5.771-0.604-6.641-0.711v-4.26h74.179L239.914,71.537L239.914,71.537z"/>
<path fill="#FFFFFF" d="M283.874,131.396c-4.733,0-9.155-0.586-13.245-1.771c-4.1-1.182-7.57-2.568-10.413-4.175l-3.764,3.825
	h-4.646l-0.707-28.021h4.694c1.052,2.658,2.397,5.469,4.04,8.426c1.643,2.959,3.525,5.604,5.688,7.942
	c2.207,2.438,4.699,4.431,7.451,5.965c2.756,1.531,5.969,2.306,9.643,2.306c4.955,0,8.748-1.213,11.39-3.644
	c2.64-2.425,3.964-5.474,3.964-9.155c0-3.023-1.123-5.57-3.369-7.629c-2.231-2.063-5.695-3.84-10.398-5.334
	c-3.061-0.992-5.875-1.896-8.443-2.742c-2.568-0.847-4.977-1.709-7.24-2.578c-5.203-2.086-10.483-4.496-13.138-8.277
	c-2.636-3.795-4.026-8.073-4.176-12.852c-0.085-3.021,0.476-5.947,1.705-8.779c1.228-2.824,3.745-6.233,6.362-8.319
	c2.658-2.116,5.004-3.504,8.512-4.837c4.104-1.562,8.767-2.13,13.16-2.26c4.306-0.134,7.285,0.39,11.062,1.473
	c3.786,1.087,6.774,2.206,8.964,3.338l3.227-3.37l4.752-0.143l1.223,26.414l-4.689,0.145c-1.178-2.823-2.561-5.688-4.117-8.618
	c-1.562-2.936-3.189-5.356-4.887-7.28c-1.844-2.063-3.955-3.684-6.322-4.878c-2.371-1.186-4.049-1.768-7.182-1.674
	c-3.934,0.116-7.119,1.325-9.541,3.625c-2.42,2.295-3.589,5.092-3.494,8.367c0.094,3.102,1.252,5.603,3.48,7.5
	c2.225,1.911,5.652,3.544,10.283,4.9c2.721,0.827,5.486,1.66,8.332,2.483c2.828,0.827,5.348,1.638,7.549,2.407
	c5.343,1.879,9.59,5.535,12.352,9.133c2.732,3.594,4.121,8.055,4.121,13.366c0,3.365-0.787,6.609-2.354,9.746
	c-1.571,3.138-3.679,5.745-6.332,7.817c-2.927,2.305-6.282,4.063-10.108,5.307C293.428,130.777,288.971,131.396,283.874,131.396z"/>
</svg>
